<?xml version="1.0" encoding="UTF-8" standalone="no"?><!DOCTYPE svg PUBLIC "-//W3C//DTD SVG 1.1//EN" "http://www.w3.org/Graphics/SVG/1.1/DTD/svg11.dtd"><svg width="100%" height="100%" viewBox="0 0 2000 2000" version="1.1" xmlns="http://www.w3.org/2000/svg" xmlns:xlink="http://www.w3.org/1999/xlink" xml:space="preserve" xmlns:serif="http://www.serif.com/" style="fill-rule:evenodd;clip-rule:evenodd;stroke-linejoin:round;stroke-miterlimit:2;"><g><path d="M1819.731,1408.247c-10.737,9.967 -81.847,75.977 -158.114,92.38c-39.491,8.493 -33.168,-13.308 -192.262,-215.362c-150.762,-191.47 -145.533,-195.19 -295.219,-387.253c-106.01,-136.024 -128.193,-192.779 -194.738,-175.229c-41.849,11.037 -84.085,88.272 -171.017,198.139c-107.294,135.601 -102.695,138.727 -209.674,274.787c-85.712,109.014 -197.959,258.086 -214.973,280.682c-17.025,22.611 -23.674,41.651 -111.473,-2.041c-227.364,-113.143 -298.595,-458.899 -39.572,-645.796c94.119,-67.911 195.473,-56.38 213.043,-74.502c19.255,-19.861 39.882,-163.219 218.331,-292.985c288.204,-209.581 729.872,-109.817 877.085,265.647c7.209,18.387 1.278,22.896 18.565,32.829c17.891,10.28 203.248,-1.773 317.172,185.175c65.764,107.919 100.968,298.616 -57.153,463.53l-0.003,0Z" style="fill:#0f111f;"/><path d="M941.056,1516.305l-235.64,0c-92.454,0 -128.278,5.476 -140.113,-32.067c-4.72,-14.975 -6.77,-21.478 105.566,-165.456c221.155,-283.451 239.162,-328.065 270.427,-326.657c36.025,1.622 29.506,16.377 202.029,253.023c40.684,55.805 124.238,20.599 153.627,39.439c13.186,8.453 17.662,11.322 122.291,152.882c3.245,4.39 32.846,44.44 1.667,68.218c-15.811,12.058 -18.086,10.619 -479.854,10.619l-0,-0.001Z" style="fill:#65caa8;"/></g></svg>